<svg width="24" height="24" viewBox="0 0 24 24" fill="none" xmlns="http://www.w3.org/2000/svg">
<g id="Group 96">
<g id="Group">
<path id="Vector" d="M12.9808 0.0549242C13.7296 0.128725 14.4691 0.30048 15.1925 0.499072C20.5714 1.97778 24.1896 6.91842 23.9923 12.4857C23.791 18.1697 19.5058 22.9681 13.8518 23.8336C13.4022 23.902 12.9486 23.9423 12.46 24V18.3307C12.8989 18.2489 13.3391 18.1939 13.7645 18.0812C16.9452 17.2425 19.0066 14.1107 18.4657 10.9573C17.8967 7.63764 15.0261 5.34847 11.7045 5.56451C8.49428 5.77383 5.85983 8.40383 5.78199 11.6122C5.70146 14.9346 5.73501 18.2583 5.71757 21.582C5.71623 21.7564 5.71757 21.9322 5.71757 22.2006C5.52968 22.0892 5.40755 22.0221 5.29214 21.9456C1.22169 19.2445 -0.767235 14.2864 0.272856 9.43705C1.28342 4.7272 5.23577 0.990184 10.0202 0.222654C10.2067 0.193133 10.3933 0.160929 10.5798 0.130067C10.9194 0.0723681 11.2616 0.0160109 11.6052 0.00527621C12.0802 -0.00948399 12.4829 0.00661805 12.9808 0.0549242Z" fill="#69AE00"/>
<path id="Vector_2" d="M11.887 6.0557C11.887 12.0014 11.887 17.935 11.887 23.984C10.926 23.984 10.1691 23.8243 9.36792 23.6083C8.40298 23.348 7.47965 22.9857 6.53887 22.5912C6.36575 22.5013 6.25301 22.4355 6.2302 22.3939C6.22349 22.3134 6.21678 22.1967 6.21678 22.092C6.22617 18.7669 6.19933 15.4418 6.2302 12.1181C6.25838 9.01311 8.58014 6.44886 11.6508 6.05704C11.7192 6.04765 11.7903 6.0557 11.887 6.0557Z" fill="#69AE00"/>
</g>
</g>
</svg>
